<svg width="107" height="22" viewBox="0 0 107 22" fill="none" xmlns="http://www.w3.org/2000/svg">
<path d="M5.53255 8.70847C5.81113 8.11891 6.252 7.59877 6.84006 7.22417C7.42813 6.85031 8.08281 6.67285 8.73049 6.67285H12.4322L9.33659 13.7041C9.20227 14.0089 9.2192 14.3746 9.41314 14.675C9.60671 14.9757 9.93092 15.1394 10.2618 15.1394H17.2085L15.2559 18.7974C15.0042 19.2693 14.6285 19.6807 14.1394 19.9754C13.6507 20.2699 13.113 20.4087 12.5824 20.4087H0L5.53255 8.70847Z" fill="white"/>
<path d="M1.25012 0.000126677H18.5109C35.8909 -0.0600173 33.0338 21.3167 16.725 20.4082C20.3112 14.0809 23.9566 5.04406 16.7846 5.22449H5.65438C3.24359 4.81053 1.70166 3.17291 1.25012 0.000126677Z" fill="white"/>
<path d="M35.0806 6.21568C35.0806 5.56746 35.5273 5.13086 36.1559 5.13086H38.4739C41.6019 5.13086 43.3893 7.15942 43.3893 10.2869C43.3893 13.2458 41.4901 15.1615 38.6134 15.1615H36.1835C35.7227 15.1615 35.0802 14.9076 35.0802 14.1049V6.21568H35.0806ZM37.1752 13.2173H38.5858C40.3872 13.2173 41.2111 11.8789 41.2111 10.1878C41.2111 8.38532 40.3732 7.07477 38.446 7.07477H37.1749V13.2173H37.1752Z" fill="white"/>
<path d="M44.2056 6.14446C44.2056 5.44018 44.6523 5.0459 45.2529 5.0459C45.8531 5.0459 46.3002 5.44055 46.3002 6.14446V14.1466C46.3002 14.8512 45.8535 15.2455 45.2529 15.2455C44.6523 15.2455 44.2056 14.8512 44.2056 14.1466V6.14446Z" fill="white"/>
<path d="M55.482 9.21606C56.3615 9.21606 56.7107 9.66714 56.7107 10.5686C56.7107 13.2877 54.9509 15.3307 52.1578 15.3307C49.3231 15.3307 47.3539 13.0623 47.3539 10.1457C47.3539 7.21571 49.3091 4.96143 52.1578 4.96143C54.2664 4.96143 55.9983 5.9616 55.9983 6.94803C55.9983 7.55393 55.6214 7.9341 55.1324 7.9341C54.1829 7.9341 53.9875 6.90571 52.1578 6.90571C50.4124 6.90571 49.5328 8.44124 49.5328 10.1457C49.5328 11.865 50.3844 13.3864 52.1578 13.3864C53.2611 13.3864 54.5321 12.7664 54.5321 11.1603H53.1076C52.5354 11.1603 52.1302 10.752 52.1302 10.1746C52.1302 9.58249 52.5769 9.21643 53.1076 9.21643H55.482V9.21606Z" fill="white"/>
<path d="M57.5756 6.14446C57.5756 5.44018 58.0227 5.0459 58.6233 5.0459C59.2235 5.0459 59.6706 5.44055 59.6706 6.14446V14.1466C59.6706 14.8512 59.2235 15.2455 58.6233 15.2455C58.0227 15.2455 57.5756 14.8512 57.5756 14.1466V6.14446Z" fill="white"/>
<path d="M62.7916 7.07466H61.2691C60.5994 7.07466 60.3197 6.58162 60.3197 6.10233C60.3197 5.6093 60.6686 5.13037 61.2691 5.13037H66.4083C67.0089 5.13037 67.3581 5.6093 67.3581 6.10233C67.3581 6.58162 67.0784 7.07466 66.4083 7.07466H64.8859V14.1468C64.8859 14.8514 64.4391 15.2457 63.8385 15.2457C63.2383 15.2457 62.7912 14.8514 62.7912 14.1468V7.07466H62.7916Z" fill="white"/>
<path d="M68.8379 6.13052C69.0752 5.4823 69.6195 4.96143 70.332 4.96143C71.072 4.96143 71.5891 5.45446 71.8264 6.13052L74.5636 13.7944C74.6475 14.0202 74.6755 14.2177 74.6755 14.3157C74.6755 14.8651 74.2284 15.2457 73.7117 15.2457C73.1255 15.2457 72.8322 14.9357 72.6923 14.5132L72.2735 13.1889H68.3911L67.972 14.4987C67.8321 14.9357 67.5392 15.2457 66.9666 15.2457C66.408 15.2457 65.9332 14.8232 65.9332 14.2596C65.9332 14.0346 66.0028 13.8653 66.0307 13.7944L68.8379 6.13052ZM68.9913 11.245H71.6446L70.3459 7.15928H70.318L68.9913 11.245Z" fill="white"/>
<path d="M75.3306 6.14446C75.3306 5.44018 75.7777 5.0459 76.3783 5.0459C76.9785 5.0459 77.4256 5.44055 77.4256 6.14446V13.2169H79.9111C80.6239 13.2169 80.9444 13.7519 80.9165 14.2312C80.9025 14.696 80.5253 15.1609 79.9111 15.1609H76.4202C75.7361 15.1609 75.3309 14.7101 75.3309 14.0055V6.14446H75.3306Z" fill="white"/>
<path d="M84.8317 6.14446C84.8317 5.44018 85.2788 5.0459 85.8794 5.0459C86.4799 5.0459 86.9267 5.44055 86.9267 6.14446V13.2169H89.4126C90.125 13.2169 90.4459 13.7519 90.4179 14.2312C90.404 14.696 90.0268 15.1609 89.4126 15.1609H85.9217C85.2376 15.1609 84.832 14.7101 84.832 14.0055V6.14446H84.8317Z" fill="white"/>
<path d="M93.6512 6.13052C93.8886 5.4823 94.4332 4.96143 95.1453 4.96143C95.8857 4.96143 96.4024 5.45446 96.6398 6.13052L99.377 13.7944C99.4605 14.0202 99.4885 14.2177 99.4885 14.3157C99.4885 14.8651 99.0417 15.2457 98.5251 15.2457C97.9385 15.2457 97.6452 14.9357 97.5053 14.5132L97.0865 13.1889H93.2041L92.7853 14.4987C92.6455 14.9357 92.3522 15.2457 91.7799 15.2457C91.2209 15.2457 90.7462 14.8232 90.7462 14.2596C90.7462 14.0346 90.8161 13.8653 90.8441 13.7944L93.6512 6.13052ZM93.8047 11.245H96.458L95.1593 7.15928H95.1317L93.8047 11.245Z" fill="white"/>
<path d="M99.7659 6.18709C99.7659 5.5114 100.227 5.13086 100.869 5.13086H103.55C105.003 5.13086 106.176 6.11692 106.176 7.61013C106.176 8.59619 105.771 9.25815 104.877 9.68101V9.70923C106.064 9.87815 107 10.878 107 12.1042C107 14.0908 105.687 15.1612 103.76 15.1612H100.883C100.241 15.1612 99.7662 14.7524 99.7662 14.0905V6.18709H99.7659ZM101.861 9.10333H102.95C103.634 9.10333 104.081 8.69458 104.081 7.9903C104.081 7.32834 103.565 6.99013 102.95 6.99013H101.861V9.10333ZM101.861 13.3015H103.509C104.263 13.3015 104.822 12.8649 104.822 12.076C104.822 11.4141 104.319 10.963 103.341 10.963H101.861V13.3015H101.861Z" fill="white"/>
<path d="M35.5041 18.6345C35.5041 18.365 35.4938 18.1541 35.4832 17.9429H35.8865L35.9075 18.3602H35.9233C36.0646 18.1173 36.3001 17.8901 36.7244 17.8901C37.0648 17.8901 37.3265 18.101 37.4365 18.4021H37.4468C37.5252 18.2543 37.6304 18.1489 37.735 18.0695C37.8869 17.9532 38.0492 17.8901 38.2899 17.8901C38.6307 17.8901 39.1279 18.1121 39.1279 18.9991V20.4993H38.6774V19.0574C38.6774 18.5606 38.4942 18.2699 38.1276 18.2699C37.8605 18.2699 37.6617 18.4656 37.5778 18.6876C37.5568 18.7563 37.541 18.8354 37.541 18.9196V20.4993H37.091V18.9675C37.091 18.5606 36.9132 18.2699 36.5618 18.2699C36.2791 18.2699 36.0646 18.5027 35.9914 18.7351C35.9652 18.7986 35.9546 18.8825 35.9546 18.962V20.4993H35.5041V18.6345Z" fill="white"/>
<path d="M43.7441 19.8868C43.7441 20.1084 43.7544 20.3252 43.7809 20.4993H43.3673L43.3305 20.1771H43.315C43.1737 20.3776 42.9014 20.5573 42.54 20.5573C42.0267 20.5573 41.7654 20.1931 41.7654 19.8229C41.7654 19.2051 42.3097 18.8669 43.2889 18.8717V18.8198C43.2889 18.6137 43.2311 18.228 42.713 18.2332C42.4719 18.2332 42.2261 18.3022 42.048 18.4233L41.9431 18.1121C42.1525 17.9804 42.4616 17.8901 42.7807 17.8901C43.5557 17.8901 43.7441 18.4233 43.7441 18.9308V19.8868ZM43.2988 19.1951C42.7962 19.1843 42.2254 19.2738 42.2254 19.7706C42.2254 20.0769 42.4245 20.2142 42.6548 20.2142C42.9901 20.2142 43.2046 20.0033 43.2779 19.7865C43.2933 19.7338 43.2988 19.6807 43.2988 19.6388V19.1951Z" fill="white"/>
<path d="M46.5805 18.7403C46.5805 18.4392 46.575 18.1805 46.5596 17.9429H46.9629L46.9839 18.45H46.9997C47.1145 18.1062 47.3971 17.8901 47.7063 17.8901C47.7534 17.8901 47.7902 17.8953 47.8321 17.9005V18.339C47.785 18.3282 47.7379 18.3282 47.675 18.3282C47.3504 18.3282 47.12 18.5714 47.0571 18.92C47.0468 18.9835 47.0417 19.0629 47.0417 19.1368V20.4997H46.5809V18.7403H46.5805Z" fill="white"/>
<path d="M50.8627 19.1158H50.873C50.9359 19.026 51.0195 18.915 51.0931 18.8251L51.8419 17.943H52.3917L51.418 18.9944L52.5331 20.4999H51.9674L51.0982 19.274L50.8627 19.5383V20.4999H50.4071V16.749H50.8627V19.1158Z" fill="white"/>
<path d="M55.2128 19.3059C55.2228 19.9344 55.6158 20.1935 56.0821 20.1935C56.4118 20.1935 56.6157 20.1356 56.7831 20.0617L56.8674 20.3944C56.7047 20.4683 56.4221 20.5577 56.0188 20.5577C55.2386 20.5577 54.7727 20.035 54.7727 19.2639C54.7727 18.4924 55.2228 17.8906 55.961 17.8906C56.7938 17.8906 57.0083 18.6194 57.0083 19.0894C57.0083 19.1845 57.0032 19.2531 56.9925 19.3059H55.2128ZM56.5634 18.9728C56.5689 18.6825 56.4431 18.2225 55.9253 18.2225C55.4539 18.2225 55.2548 18.6502 55.218 18.9728H56.5634Z" fill="white"/>
<path d="M60.2276 17.3306V17.9428H60.8871V18.2962H60.2276V19.6754C60.2276 19.9921 60.3167 20.1722 60.5728 20.1722C60.6983 20.1722 60.7719 20.1618 60.8403 20.1403L60.8613 20.4941C60.7723 20.526 60.6309 20.5576 60.4532 20.5576C60.2383 20.5576 60.0653 20.4837 59.9553 20.3623C59.8294 20.2193 59.7772 19.9921 59.7772 19.691V18.2966H59.3845V17.9431H59.7772V17.4679L60.2276 17.3306Z" fill="white"/>
<path d="M64.0118 17.2243C64.0118 17.3828 63.9018 17.5098 63.719 17.5098C63.5512 17.5098 63.4412 17.3828 63.4412 17.2243C63.4412 17.0654 63.5563 16.9336 63.7293 16.9336C63.897 16.9336 64.0118 17.0606 64.0118 17.2243ZM63.4997 20.4992V17.9423H63.96V20.4992H63.4997Z" fill="white"/>
<path d="M66.8175 18.6346C66.8175 18.3651 66.8123 18.1542 66.7965 17.943H67.2046L67.2311 18.3655H67.2414C67.3673 18.1282 67.6602 17.8906 68.079 17.8906C68.4297 17.8906 68.9744 18.1015 68.9744 18.9788V20.5002H68.5136V19.0263C68.5136 18.6146 68.362 18.2708 67.927 18.2708C67.6286 18.2708 67.393 18.4876 67.3091 18.746C67.2882 18.8047 67.2779 18.8834 67.2779 18.9628V20.5002H66.8167V18.6346H66.8175Z" fill="white"/>
<path d="M73.9847 20.1247C73.9847 20.7162 73.8644 21.0703 73.6237 21.2972C73.372 21.524 73.0161 21.6035 72.6967 21.6035C72.3927 21.6035 72.0579 21.5296 71.8532 21.3922L71.9684 21.0328C72.1359 21.1439 72.3983 21.2393 72.7122 21.2393C73.1832 21.2393 73.5291 20.9909 73.5291 20.3408V20.0613H73.5188C73.3827 20.2989 73.1052 20.4886 72.7125 20.4886C72.0843 20.4886 71.6339 19.9499 71.6339 19.2423C71.6339 18.3761 72.194 17.8901 72.7802 17.8901C73.2204 17.8901 73.4563 18.117 73.5707 18.3282H73.581L73.5972 17.9429H74.0053C73.9899 18.1222 73.9843 18.3338 73.9843 18.6401V20.1247H73.9847ZM73.524 18.9516C73.524 18.8721 73.5185 18.8042 73.4978 18.7451C73.4139 18.4708 73.1942 18.2488 72.8538 18.2488C72.4141 18.2488 72.0998 18.6237 72.0998 19.2155C72.0998 19.7171 72.3563 20.1348 72.8483 20.1348C73.1361 20.1348 73.3926 19.9551 73.4872 19.6592C73.5133 19.5797 73.524 19.4903 73.524 19.4112V18.9516Z" fill="white"/>
<path d="M81.8209 19.8868C81.8209 20.1084 81.8312 20.3252 81.8577 20.4993H81.4441L81.4069 20.1771H81.3911C81.2498 20.3776 80.9775 20.5573 80.6164 20.5573C80.1031 20.5573 79.8422 20.1931 79.8422 19.8229C79.8422 19.2051 80.3864 18.8669 81.3657 18.8717V18.8198C81.3657 18.6137 81.3083 18.228 80.7898 18.2332C80.5491 18.2332 80.3029 18.3022 80.1248 18.4233L80.0203 18.1121C80.2293 17.9804 80.5384 17.8901 80.8575 17.8901C81.6325 17.8901 81.8213 18.4233 81.8213 18.9308V19.8868H81.8209ZM81.3756 19.1951C80.8729 19.1843 80.3022 19.2738 80.3022 19.7706C80.3022 20.0769 80.5016 20.2142 80.7316 20.2142C81.0669 20.2142 81.2811 20.0033 81.3547 19.7865C81.3705 19.7338 81.3756 19.6807 81.3756 19.6388V19.1951Z" fill="white"/>
<path d="M86.8248 20.1247C86.8248 20.7162 86.7045 21.0703 86.4638 21.2972C86.2128 21.524 85.857 21.6035 85.5368 21.6035C85.2332 21.6035 84.8983 21.5296 84.6941 21.3922L84.8092 21.0328C84.9763 21.1439 85.2383 21.2393 85.553 21.2393C86.0237 21.2393 86.3696 20.9909 86.3696 20.3408V20.0613H86.3593C86.2231 20.2989 85.946 20.4886 85.5533 20.4886C84.9248 20.4886 84.4744 19.9499 84.4744 19.2423C84.4744 18.3761 85.0345 17.8901 85.6207 17.8901C86.0605 17.8901 86.2963 18.117 86.4115 18.3282H86.4218L86.4373 17.9429H86.8458C86.83 18.1222 86.8244 18.3338 86.8244 18.6401V20.1247H86.8248ZM86.3644 18.9516C86.3644 18.8721 86.3589 18.8042 86.3383 18.7451C86.2544 18.4708 86.0343 18.2488 85.6943 18.2488C85.2545 18.2488 84.9403 18.6237 84.9403 19.2155C84.9403 19.7171 85.1968 20.1348 85.6888 20.1348C85.9769 20.1348 86.2334 19.9551 86.3273 19.6592C86.3538 19.5797 86.3644 19.4903 86.3644 19.4112V18.9516Z" fill="white"/>
<path d="M89.9343 19.3059C89.9446 19.9344 90.3376 20.1935 90.8028 20.1935C91.1328 20.1935 91.3371 20.1356 91.5045 20.0617L91.5884 20.3944C91.4265 20.4683 91.1435 20.5577 90.7402 20.5577C89.9604 20.5577 89.4938 20.035 89.4938 19.2639C89.4938 18.4924 89.9446 17.8906 90.6824 17.8906C91.5152 17.8906 91.7297 18.6194 91.7297 19.0894C91.7297 19.1845 91.7242 19.2531 91.7139 19.3059H89.9343ZM91.2845 18.9728C91.29 18.6825 91.1641 18.2225 90.646 18.2225C90.1746 18.2225 89.9759 18.6502 89.9391 18.9728H91.2845Z" fill="white"/>
<path d="M94.3941 18.6346C94.3941 18.3651 94.3886 18.1542 94.3728 17.943H94.7809L94.807 18.3655H94.8174C94.9432 18.1282 95.2361 17.8906 95.6553 17.8906C96.006 17.8906 96.5503 18.1015 96.5503 18.9788V20.5002H96.0899V19.0263C96.0899 18.6146 95.9383 18.2708 95.5037 18.2708C95.2045 18.2708 94.969 18.4876 94.8854 18.746C94.8645 18.8047 94.8541 18.8834 94.8541 18.9628V20.5002H94.3934V18.6346H94.3941Z" fill="white"/>
<path d="M101.199 20.4094C101.079 20.4677 100.811 20.5571 100.471 20.5571C99.7066 20.5571 99.2091 20.0344 99.2091 19.2525C99.2091 18.4655 99.7431 17.8896 100.571 17.8896C100.843 17.8896 101.084 17.9587 101.209 18.0266L101.105 18.3805C100.995 18.3225 100.822 18.2594 100.571 18.2594C99.9893 18.2594 99.675 18.6979 99.675 19.2262C99.675 19.8176 100.052 20.1822 100.555 20.1822C100.817 20.1822 100.99 20.1183 101.12 20.0608L101.199 20.4094Z" fill="white"/>
<path d="M104.094 17.9432L104.643 19.4543C104.706 19.6228 104.769 19.8237 104.811 19.9766H104.821C104.868 19.8237 104.92 19.6284 104.983 19.4431L105.486 17.9429H105.973L105.281 19.7654C104.952 20.6419 104.726 21.086 104.413 21.3659C104.182 21.5612 103.962 21.6406 103.847 21.6618L103.732 21.276C103.847 21.2393 103.999 21.165 104.135 21.0492C104.261 20.9486 104.413 20.7693 104.523 20.5317C104.544 20.4838 104.56 20.4466 104.56 20.4207C104.56 20.3943 104.549 20.3568 104.523 20.2989L103.591 17.9429H104.094V17.9432Z" fill="white"/>
</svg>
