<svg width="107" height="22" viewBox="0 0 107 22" fill="none" xmlns="http://www.w3.org/2000/svg">
<path d="M5.53255 8.70847C5.81113 8.11891 6.252 7.59877 6.84006 7.22417C7.42813 6.85031 8.08281 6.67285 8.73049 6.67285H12.4322L9.33659 13.7041C9.20227 14.0089 9.2192 14.3746 9.41314 14.675C9.60671 14.9757 9.93092 15.1394 10.2618 15.1394H17.2085L15.2559 18.7974C15.0042 19.2693 14.6285 19.6807 14.1394 19.9754C13.6507 20.2699 13.113 20.4087 12.5824 20.4087H0L5.53255 8.70847Z" fill="#ED1C24"/>
<path d="M1.25 0.000126677H18.5108C35.8908 -0.0600173 33.0337 21.3167 16.7249 20.4082C20.3111 14.0809 23.9565 5.04406 16.7845 5.22449H5.65426C3.24347 4.81053 1.70154 3.17291 1.25 0.000126677Z" fill="#ED1C24"/>
<path d="M35.0804 6.21544C35.0804 5.56722 35.5272 5.13062 36.1558 5.13062H38.4738C41.6018 5.13062 43.3892 7.15918 43.3892 10.2867C43.3892 13.2456 41.4899 15.1613 38.6133 15.1613H36.1834C35.7226 15.1613 35.0801 14.9074 35.0801 14.1047V6.21544H35.0804ZM37.1751 13.217H38.5857C40.387 13.217 41.211 11.8786 41.211 10.1875C41.211 8.38508 40.3731 7.07453 38.4458 7.07453H37.1747V13.217H37.1751Z" fill="#F5F5F5"/>
<path d="M44.2056 6.1447C44.2056 5.44042 44.6523 5.04614 45.2529 5.04614C45.8531 5.04614 46.3002 5.44079 46.3002 6.1447V14.1468C46.3002 14.8515 45.8535 15.2457 45.2529 15.2457C44.6523 15.2457 44.2056 14.8515 44.2056 14.1468V6.1447Z" fill="#F5F5F5"/>
<path d="M55.4816 9.21606C56.3611 9.21606 56.7104 9.66714 56.7104 10.5686C56.7104 13.2877 54.9506 15.3307 52.1574 15.3307C49.3227 15.3307 47.3535 13.0623 47.3535 10.1457C47.3535 7.21571 49.3087 4.96143 52.1574 4.96143C54.2661 4.96143 55.9979 5.9616 55.9979 6.94803C55.9979 7.55393 55.6211 7.9341 55.132 7.9341C54.1825 7.9341 53.9871 6.90571 52.1574 6.90571C50.412 6.90571 49.5325 8.44124 49.5325 10.1457C49.5325 11.865 50.384 13.3864 52.1574 13.3864C53.2607 13.3864 54.5318 12.7664 54.5318 11.1603H53.1072C52.535 11.1603 52.1298 10.752 52.1298 10.1746C52.1298 9.58249 52.5766 9.21643 53.1072 9.21643H55.4816V9.21606Z" fill="#F5F5F5"/>
<path d="M57.5752 6.1447C57.5752 5.44042 58.0223 5.04614 58.6229 5.04614C59.2231 5.04614 59.6702 5.44079 59.6702 6.1447V14.1468C59.6702 14.8515 59.2231 15.2457 58.6229 15.2457C58.0223 15.2457 57.5752 14.8515 57.5752 14.1468V6.1447Z" fill="#F5F5F5"/>
<path d="M62.7912 7.07466H61.2688C60.599 7.07466 60.3193 6.58162 60.3193 6.10233C60.3193 5.6093 60.6682 5.13037 61.2688 5.13037H66.4079C67.0085 5.13037 67.3578 5.6093 67.3578 6.10233C67.3578 6.58162 67.0781 7.07466 66.4079 7.07466H64.8855V14.1468C64.8855 14.8514 64.4388 15.2457 63.8382 15.2457C63.238 15.2457 62.7908 14.8514 62.7908 14.1468V7.07466H62.7912Z" fill="#F5F5F5"/>
<path d="M68.8378 6.13052C69.0751 5.4823 69.6194 4.96143 70.3318 4.96143C71.0719 4.96143 71.5889 5.45446 71.8263 6.13052L74.5635 13.7944C74.6474 14.0202 74.6754 14.2177 74.6754 14.3157C74.6754 14.8651 74.2283 15.2457 73.7116 15.2457C73.1254 15.2457 72.8321 14.9357 72.6922 14.5132L72.2734 13.1889H68.391L67.9718 14.4987C67.832 14.9357 67.5391 15.2457 66.9665 15.2457C66.4078 15.2457 65.9331 14.8232 65.9331 14.2596C65.9331 14.0346 66.0027 13.8653 66.0306 13.7944L68.8378 6.13052ZM68.9912 11.245H71.6445L70.3458 7.15928H70.3179L68.9912 11.245Z" fill="#F5F5F5"/>
<path d="M75.3306 6.1447C75.3306 5.44042 75.7777 5.04614 76.3783 5.04614C76.9785 5.04614 77.4256 5.44079 77.4256 6.1447V13.2172H79.9111C80.6239 13.2172 80.9444 13.7522 80.9165 14.2315C80.9025 14.6963 80.5253 15.1611 79.9111 15.1611H76.4202C75.7361 15.1611 75.3309 14.7104 75.3309 14.0057V6.1447H75.3306Z" fill="#F5F5F5"/>
<path d="M84.8315 6.1447C84.8315 5.44042 85.2787 5.04614 85.8792 5.04614C86.4798 5.04614 86.9266 5.44079 86.9266 6.1447V13.2172H89.4124C90.1249 13.2172 90.4458 13.7522 90.4178 14.2315C90.4038 14.6963 90.0266 15.1611 89.4124 15.1611H85.9216C85.2375 15.1611 84.8319 14.7104 84.8319 14.0057V6.1447H84.8315Z" fill="#F5F5F5"/>
<path d="M93.6511 6.13052C93.8885 5.4823 94.4331 4.96143 95.1452 4.96143C95.8856 4.96143 96.4023 5.45446 96.6397 6.13052L99.3769 13.7944C99.4604 14.0202 99.4884 14.2177 99.4884 14.3157C99.4884 14.8651 99.0416 15.2457 98.5249 15.2457C97.9383 15.2457 97.645 14.9357 97.5052 14.5132L97.0864 13.1889H93.204L92.7852 14.4987C92.6454 14.9357 92.3521 15.2457 91.7798 15.2457C91.2208 15.2457 90.7461 14.8232 90.7461 14.2596C90.7461 14.0346 90.816 13.8653 90.844 13.7944L93.6511 6.13052ZM93.8046 11.245H96.4579L95.1592 7.15928H95.1316L93.8046 11.245Z" fill="#F5F5F5"/>
<path d="M99.7656 6.18685C99.7656 5.51116 100.226 5.13062 100.869 5.13062H103.55C105.002 5.13062 106.175 6.11668 106.175 7.60989C106.175 8.59595 105.77 9.2579 104.877 9.68077V9.70898C106.064 9.87791 107 10.8777 107 12.104C107 14.0906 105.687 15.1609 103.76 15.1609H100.883C100.241 15.1609 99.766 14.7522 99.766 14.0902V6.18685H99.7656ZM101.861 9.10309H102.95C103.634 9.10309 104.081 8.69433 104.081 7.99005C104.081 7.3281 103.565 6.98988 102.95 6.98988H101.861V9.10309ZM101.861 13.3013H103.509C104.263 13.3013 104.822 12.8647 104.822 12.0758C104.822 11.4138 104.319 10.9627 103.341 10.9627H101.861V13.3013H101.861Z" fill="#F5F5F5"/>
<path d="M35.5044 18.635C35.5044 18.3655 35.4941 18.1546 35.4834 17.9433H35.8867L35.9077 18.3606H35.9235C36.0648 18.1178 36.3004 17.8906 36.7247 17.8906C37.0651 17.8906 37.3267 18.1015 37.4368 18.4026H37.4471C37.5254 18.2548 37.6307 18.1494 37.7352 18.0699C37.8872 17.9537 38.0495 17.8906 38.2902 17.8906C38.6309 17.8906 39.1281 18.1126 39.1281 18.9996V20.4998H38.6777V19.0579C38.6777 18.5611 38.4944 18.2704 38.1279 18.2704C37.8607 18.2704 37.662 18.4661 37.5781 18.6881C37.5571 18.7568 37.5413 18.8358 37.5413 18.9201V20.4998H37.0912V18.968C37.0912 18.5611 36.9135 18.2704 36.562 18.2704C36.2794 18.2704 36.0648 18.5032 35.9916 18.7356C35.9655 18.7991 35.9548 18.883 35.9548 18.9624V20.4998H35.5044V18.635Z" fill="#F5F5F5"/>
<path d="M43.7444 19.8873C43.7444 20.1089 43.7547 20.3257 43.7812 20.4998H43.3675L43.3307 20.1776H43.3153C43.174 20.3781 42.9016 20.5578 42.5403 20.5578C42.0269 20.5578 41.7656 20.1935 41.7656 19.8234C41.7656 19.2056 42.3099 18.8674 43.2892 18.8722V18.8203C43.2892 18.6142 43.2314 18.2285 42.7132 18.2337C42.4722 18.2337 42.2264 18.3027 42.0482 18.4238L41.9434 18.1126C42.1528 17.9808 42.4619 17.8906 42.7809 17.8906C43.556 17.8906 43.7444 18.4238 43.7444 18.9313V19.8873ZM43.2991 19.1956C42.7964 19.1848 42.2256 19.2743 42.2256 19.7711C42.2256 20.0773 42.4247 20.2147 42.6551 20.2147C42.9903 20.2147 43.2049 20.0038 43.2781 19.787C43.2936 19.7343 43.2991 19.6812 43.2991 19.6393V19.1956Z" fill="#F5F5F5"/>
<path d="M46.5805 18.7408C46.5805 18.4397 46.575 18.1809 46.5596 17.9433H46.9629L46.9839 18.4505H46.9997C47.1145 18.1067 47.3971 17.8906 47.7063 17.8906C47.7534 17.8906 47.7902 17.8958 47.8321 17.901V18.3395C47.785 18.3287 47.7379 18.3287 47.675 18.3287C47.3504 18.3287 47.12 18.5719 47.0571 18.9205C47.0468 18.984 47.0417 19.0634 47.0417 19.1373V20.5002H46.5809V18.7408H46.5805Z" fill="#F5F5F5"/>
<path d="M50.8628 19.116H50.8731C50.936 19.0262 51.0196 18.9152 51.0932 18.8254L51.8421 17.9432H52.3919L51.4181 18.9946L52.5332 20.5001H51.9676L51.0983 19.2742L50.8628 19.5385V20.5001H50.4072V16.7493H50.8628V19.116Z" fill="#F5F5F5"/>
<path d="M55.2131 19.3061C55.223 19.9346 55.616 20.1938 56.0823 20.1938C56.412 20.1938 56.6159 20.1359 56.7833 20.062L56.8676 20.3946C56.705 20.4685 56.4223 20.558 56.019 20.558C55.2388 20.558 54.7729 20.0353 54.7729 19.2642C54.7729 18.4927 55.223 17.8909 55.9612 17.8909C56.794 17.8909 57.0086 18.6196 57.0086 19.0897C57.0086 19.1847 57.0034 19.2534 56.9927 19.3061H55.2131ZM56.5636 18.9731C56.5692 18.6828 56.4433 18.2228 55.9255 18.2228C55.4541 18.2228 55.255 18.6505 55.2182 18.9731H56.5636Z" fill="#F5F5F5"/>
<path d="M60.2279 17.3306V17.9428H60.8873V18.2962H60.2279V19.6754C60.2279 19.9921 60.3169 20.1722 60.573 20.1722C60.6985 20.1722 60.7721 20.1618 60.8406 20.1403L60.8616 20.4941C60.7725 20.526 60.6312 20.5576 60.4534 20.5576C60.2385 20.5576 60.0656 20.4837 59.9555 20.3623C59.8297 20.2193 59.7774 19.9921 59.7774 19.691V18.2966H59.3848V17.9431H59.7774V17.4679L60.2279 17.3306Z" fill="#F5F5F5"/>
<path d="M64.0121 17.2248C64.0121 17.3833 63.9021 17.5103 63.7192 17.5103C63.5514 17.5103 63.4414 17.3833 63.4414 17.2248C63.4414 17.0659 63.5566 16.9341 63.7295 16.9341C63.8973 16.9341 64.0121 17.0611 64.0121 17.2248ZM63.4999 20.4997V17.9428H63.9602V20.4997H63.4999Z" fill="#F5F5F5"/>
<path d="M66.8178 18.6349C66.8178 18.3653 66.8127 18.1545 66.7969 17.9432H67.205L67.2315 18.3657H67.2418C67.3676 18.1285 67.6606 17.8909 68.0794 17.8909C68.4301 17.8909 68.9747 18.1017 68.9747 18.979V20.5004H68.514V19.0266C68.514 18.6148 68.3624 18.271 67.9274 18.271C67.6289 18.271 67.3934 18.4879 67.3095 18.7463C67.2885 18.8049 67.2782 18.8836 67.2782 18.9631V20.5004H66.8171V18.6349H66.8178Z" fill="#F5F5F5"/>
<path d="M73.9851 20.1252C73.9851 20.7166 73.8647 21.0708 73.6241 21.2977C73.3724 21.5245 73.0165 21.604 72.6971 21.604C72.3931 21.604 72.0582 21.5301 71.8536 21.3927L71.9688 21.0333C72.1362 21.1443 72.3986 21.2398 72.7125 21.2398C73.1836 21.2398 73.5295 20.9914 73.5295 20.3413V20.0617H73.5192C73.383 20.2994 73.1056 20.4891 72.7129 20.4891C72.0847 20.4891 71.6343 19.9504 71.6343 19.2428C71.6343 18.3766 72.1944 17.8906 72.7806 17.8906C73.2207 17.8906 73.4566 18.1175 73.5711 18.3287H73.5814L73.5976 17.9433H74.0057C73.9902 18.1227 73.9847 18.3343 73.9847 18.6406V20.1252H73.9851ZM73.5243 18.9521C73.5243 18.8726 73.5188 18.8047 73.4982 18.7456C73.4143 18.4713 73.1946 18.2493 72.8542 18.2493C72.4144 18.2493 72.1002 18.6242 72.1002 19.216C72.1002 19.7176 72.3567 20.1353 72.8487 20.1353C73.1365 20.1353 73.393 19.9556 73.4875 19.6597C73.5137 19.5802 73.5243 19.4908 73.5243 19.4117V18.9521Z" fill="#F5F5F5"/>
<path d="M81.821 19.8873C81.821 20.1089 81.8313 20.3257 81.8578 20.4998H81.4442L81.407 20.1776H81.3912C81.2499 20.3781 80.9776 20.5578 80.6166 20.5578C80.1032 20.5578 79.8423 20.1935 79.8423 19.8234C79.8423 19.2056 80.3866 18.8674 81.3658 18.8722V18.8203C81.3658 18.6142 81.3084 18.2285 80.7899 18.2337C80.5492 18.2337 80.303 18.3027 80.1249 18.4238L80.0204 18.1126C80.2294 17.9808 80.5385 17.8906 80.8576 17.8906C81.6326 17.8906 81.8214 18.4238 81.8214 18.9313V19.8873H81.821ZM81.3757 19.1956C80.8731 19.1848 80.3023 19.2743 80.3023 19.7711C80.3023 20.0773 80.5017 20.2147 80.7317 20.2147C81.067 20.2147 81.2812 20.0038 81.3548 19.787C81.3706 19.7343 81.3757 19.6812 81.3757 19.6393V19.1956Z" fill="#F5F5F5"/>
<path d="M86.825 20.1252C86.825 20.7166 86.7047 21.0708 86.464 21.2977C86.2131 21.5245 85.8572 21.604 85.537 21.604C85.2334 21.604 84.8985 21.5301 84.6943 21.3927L84.8095 21.0333C84.9766 21.1443 85.2386 21.2398 85.5532 21.2398C86.0239 21.2398 86.3698 20.9914 86.3698 20.3413V20.0617H86.3595C86.2234 20.2994 85.9463 20.4891 85.5536 20.4891C84.925 20.4891 84.4746 19.9504 84.4746 19.2428C84.4746 18.3766 85.0347 17.8906 85.6209 17.8906C86.0607 17.8906 86.2966 18.1175 86.4118 18.3287H86.4221L86.4375 17.9433H86.846C86.8302 18.1227 86.8247 18.3343 86.8247 18.6406V20.1252H86.825ZM86.3647 18.9521C86.3647 18.8726 86.3592 18.8047 86.3385 18.7456C86.2546 18.4713 86.0346 18.2493 85.6945 18.2493C85.2548 18.2493 84.9405 18.6242 84.9405 19.216C84.9405 19.7176 85.197 20.1353 85.689 20.1353C85.9772 20.1353 86.2337 19.9556 86.3275 19.6597C86.354 19.5802 86.3647 19.4908 86.3647 19.4117V18.9521Z" fill="#F5F5F5"/>
<path d="M89.9346 19.3061C89.9449 19.9346 90.338 20.1938 90.8031 20.1938C91.1332 20.1938 91.3375 20.1359 91.5049 20.062L91.5888 20.3946C91.4269 20.4685 91.1439 20.558 90.7406 20.558C89.9608 20.558 89.4941 20.0353 89.4941 19.2642C89.4941 18.4927 89.9449 17.8909 90.6828 17.8909C91.5156 17.8909 91.7301 18.6196 91.7301 19.0897C91.7301 19.1847 91.7246 19.2534 91.7143 19.3061H89.9346ZM91.2848 18.9731C91.2904 18.6828 91.1645 18.2228 90.6464 18.2228C90.1749 18.2228 89.9762 18.6505 89.9394 18.9731H91.2848Z" fill="#F5F5F5"/>
<path d="M94.3944 18.6349C94.3944 18.3653 94.3889 18.1545 94.373 17.9432H94.7812L94.8073 18.3657H94.8176C94.9435 18.1285 95.2364 17.8909 95.6555 17.8909C96.0062 17.8909 96.5505 18.1017 96.5505 18.979V20.5004H96.0901V19.0266C96.0901 18.6148 95.9385 18.271 95.5039 18.271C95.2047 18.271 94.9692 18.4879 94.8857 18.7463C94.8647 18.8049 94.8544 18.8836 94.8544 18.9631V20.5004H94.3937V18.6349H94.3944Z" fill="#F5F5F5"/>
<path d="M101.199 20.4099C101.079 20.4682 100.812 20.5576 100.472 20.5576C99.707 20.5576 99.2095 20.0349 99.2095 19.253C99.2095 18.466 99.7435 17.8901 100.571 17.8901C100.843 17.8901 101.084 17.9592 101.209 18.0271L101.105 18.3809C100.995 18.323 100.822 18.2599 100.571 18.2599C99.9896 18.2599 99.6754 18.6984 99.6754 19.2267C99.6754 19.8181 100.053 20.1827 100.555 20.1827C100.817 20.1827 100.99 20.1188 101.121 20.0613L101.199 20.4099Z" fill="#F5F5F5"/>
<path d="M104.094 17.9432L104.643 19.4543C104.706 19.6228 104.769 19.8237 104.811 19.9766H104.821C104.868 19.8237 104.92 19.6284 104.983 19.4431L105.486 17.9429H105.973L105.281 19.7654C104.952 20.6419 104.726 21.086 104.413 21.3659C104.182 21.5612 103.962 21.6406 103.847 21.6618L103.732 21.276C103.847 21.2393 103.999 21.165 104.135 21.0492C104.261 20.9486 104.413 20.7693 104.523 20.5317C104.544 20.4838 104.56 20.4466 104.56 20.4207C104.56 20.3943 104.549 20.3568 104.523 20.2989L103.591 17.9429H104.094V17.9432Z" fill="#F5F5F5"/>
</svg>
