<svg width="91" height="35" viewBox="0 0 91 35" fill="none" xmlns="http://www.w3.org/2000/svg">
<path d="M12.1824 31H6.13122V11.0467L0.1875 12.8455V8.09821L11.6274 3.99998H12.1824V31Z" fill="#FF2D2D"/>
<path d="M12.4224 31V3.99998L25.3768 1.49998V33.5L12.4224 31Z" fill="#F5F5F5"/>
<path d="M25.377 5.00002V3.00002H30.6547V31H28.7355V5.00002H25.377Z" fill="#F5F5F5"/>
<path d="M22.9778 18.5C22.7379 18.5 22.1382 18.375 22.1382 17.5C22.1382 16.75 22.7379 16.5 22.9778 16.5C23.2177 16.5 23.8175 16.625 23.8175 17.5C23.8175 18.375 23.2177 18.5 22.9778 18.5Z" fill="#282828"/>
<path d="M45.7806 13.75H43.3137V5.07077H39.6378V13.75H37.1709V3.08592H45.7806V13.75Z" fill="#FF2D2D"/>
<path d="M53.6663 9.23092H49.7867V11.7724H54.3692V13.75H47.3198V3.08592H54.3831V5.07077H49.7867V7.3193H53.6663V9.23092Z" fill="#FF2D2D"/>
<path d="M57.8409 10.1318V13.75H55.374V3.08592H59.4573C60.2399 3.08592 60.931 3.23727 61.5308 3.54002C62.1353 3.83787 62.6014 4.2651 62.9294 4.82175C63.2621 5.3735 63.4283 6.00095 63.4283 6.70407C63.4283 7.74412 63.0699 8.57662 62.3531 9.20162C61.6409 9.82175 60.6616 10.1318 59.4153 10.1318H57.8409ZM57.8409 8.14695H59.4573C59.9354 8.14695 60.2984 8.02242 60.5467 7.77342C60.7998 7.5244 60.9264 7.17282 60.9264 6.71872C60.9264 6.22067 60.7974 5.82272 60.5397 5.52487C60.2821 5.22702 59.9306 5.07565 59.4856 5.07077H57.8409V8.14695Z" fill="#FF2D2D"/>
<path d="M64.75 13.75V3.08592H68.4257C69.7425 3.08592 70.7426 3.33737 71.4268 3.8403C72.1156 4.34322 72.4601 5.07322 72.4601 6.03025C72.4601 6.582 72.3382 7.0532 72.0945 7.44382C71.851 7.83445 71.4923 8.12252 71.0192 8.30807C71.5533 8.45457 71.9632 8.728 72.2492 9.1284C72.5349 9.52877 72.6779 10.0171 72.6779 10.5932C72.6779 11.6381 72.3593 12.4243 71.7221 12.9516C71.0895 13.4741 70.1501 13.7402 68.9036 13.75H64.75ZM67.2169 9.21627V11.7724H68.8333C69.2785 11.7724 69.6206 11.6674 69.8596 11.4575C70.0985 11.2426 70.218 10.9423 70.218 10.5566C70.218 9.66795 69.7938 9.22117 68.9458 9.21627H67.2169ZM67.2169 7.53172H68.5032C69.042 7.52682 69.4261 7.4243 69.6557 7.2241C69.8852 7.0239 70.0002 6.7285 70.0002 6.33787C70.0002 5.88865 69.8759 5.56637 69.6276 5.37107C69.3793 5.17087 68.9787 5.07077 68.4257 5.07077H67.2169V7.53172Z" fill="#FF2D2D"/>
<path d="M79.8536 11.7578H76.473L75.8826 13.75H73.2471L77 3.08592H79.3194L83.1006 13.75H80.451L79.8536 11.7578ZM77.0634 9.77292H79.2632L78.1597 6.0742L77.0634 9.77292Z" fill="#FF2D2D"/>
<path d="M88.2595 13.75V10.0073H86.8398L85.1108 13.75H82.4331L84.5346 9.13572C83.6208 8.5156 83.1641 7.60495 83.1641 6.40377C83.1641 5.3491 83.4968 4.53367 84.162 3.9575C84.8273 3.37645 85.7857 3.08592 87.0365 3.08592H90.7336V13.75H88.2595ZM85.624 6.63082C85.624 7.17282 85.7293 7.5659 85.9402 7.81002C86.151 8.05417 86.5049 8.17625 87.0015 8.17625H88.2595V5.07077H87.0156C86.5236 5.07077 86.1674 5.20505 85.9471 5.4736C85.7317 5.73727 85.624 6.12302 85.624 6.63082Z" fill="#FF2D2D"/>
<path d="M45.2733 30.935H43.4282V28.75H38.7838V30.929H36.8802L36.7339 27.102H37.337C37.6534 26.8822 37.9072 26.506 38.0984 25.973C38.2937 25.4357 38.4324 24.6667 38.5144 23.6657L38.7778 19.8633H44.5821V27.102H45.4899L45.2733 30.935ZM39.6623 27.102H42.5322V21.5172H40.7164L40.5583 23.739C40.4413 25.1795 40.1426 26.3005 39.6623 27.102Z" fill="#F5F5F5"/>
<path d="M46.1987 28.75V19.8633H49.2617C50.359 19.8633 51.1927 20.0728 51.7627 20.4919C52.3367 20.911 52.6237 21.5192 52.6237 22.317C52.6237 22.7767 52.5222 23.1692 52.3192 23.4947C52.116 23.8205 51.8174 24.0605 51.423 24.215C51.8682 24.3372 52.2098 24.565 52.4481 24.8987C52.6863 25.2322 52.8053 25.6392 52.8053 26.1195C52.8053 26.9902 52.5397 27.6452 52.0088 28.0847C51.4815 28.52 50.6987 28.7417 49.6602 28.75H46.1987ZM48.2544 24.972V27.102H49.6014C49.9726 27.102 50.2576 27.0145 50.4567 26.8395C50.6558 26.6605 50.7553 26.4102 50.7553 26.0887C50.7553 25.3482 50.402 24.976 49.6952 24.972H48.2544ZM48.2544 23.568H49.3263C49.7754 23.564 50.0954 23.4785 50.2868 23.3117C50.478 23.145 50.5737 22.8987 50.5737 22.5732C50.5737 22.199 50.4703 21.9302 50.2633 21.7675C50.0565 21.6007 49.7226 21.5172 49.2617 21.5172H48.2544V23.568Z" fill="#F5F5F5"/>
<path d="M59.2302 24.9842H55.9973V27.102H59.816V28.75H53.9414V19.8633H59.8275V21.5172H55.9973V23.391H59.2302V24.9842Z" fill="#F5F5F5"/>
<path d="M62.709 25.7347V28.75H60.6533V19.8633H64.056C64.7081 19.8633 65.2841 19.9894 65.784 20.2417C66.2875 20.4899 66.6762 20.8459 66.9494 21.3098C67.2267 21.7695 67.3652 22.2925 67.3652 22.8785C67.3652 23.745 67.0665 24.439 66.4691 24.9597C65.8756 25.4765 65.0595 25.7347 64.021 25.7347H62.709ZM62.709 24.0807H64.056C64.4545 24.0807 64.757 23.977 64.964 23.7695C65.1747 23.562 65.2802 23.269 65.2802 22.8905C65.2802 22.4755 65.1727 22.144 64.958 21.8957C64.7433 21.6475 64.4504 21.5215 64.0795 21.5172H62.709V24.0807Z" fill="#F5F5F5"/>
<path d="M75.5941 28.75H73.5502V25.039H70.5222V28.75H68.4663V19.8633H70.5222V23.391H73.5502V19.8633H75.5941V28.75Z" fill="#F5F5F5"/>
<path d="M81.8492 27.0897H79.032L78.54 28.75H76.3438L79.4713 19.8633H81.4041L84.5552 28.75H82.3472L81.8492 27.0897ZM79.5241 25.4357H81.3574L80.4378 22.3535L79.5241 25.4357Z" fill="#F5F5F5"/>
<path d="M88.8545 28.75V25.631H87.6714L86.2305 28.75H83.999L85.7503 24.9047C84.9888 24.388 84.6081 23.6292 84.6081 22.6282C84.6081 21.7492 84.8854 21.0697 85.4398 20.5896C85.9942 20.1054 86.7929 19.8633 87.8352 19.8633H90.916V28.75H88.8545ZM86.658 22.8175C86.658 23.269 86.7458 23.5965 86.9217 23.8C87.0973 24.0035 87.3921 24.1052 87.806 24.1052H88.8545V21.5172H87.8177C87.4077 21.5172 87.111 21.6292 86.9275 21.853C86.748 22.0727 86.658 22.3942 86.658 22.8175Z" fill="#F5F5F5"/>
</svg>
